<svg xmlns="http://www.w3.org/2000/svg" width="98.113" height="98.113" viewBox="0 0 98.113 98.113"><defs><style>.a{fill:#04154c;}.b{fill:#fff;}.c{fill:#22abc3;}.d{fill:none;}</style></defs><g transform="translate(1662.679 11.679)"><path class="a" d="M93.031,72H27.623L13.465,74.36A6.541,6.541,0,0,0,8,80.812v10.81h9.811a9.811,9.811,0,0,1,19.623,0H76.679a9.811,9.811,0,0,1,19.623,0h6.541V77.628a3.27,3.27,0,0,0-2.237-3.107Z" transform="translate(-1669.044 -68.962)"/><g transform="translate(-1650.638 12.734)"><circle class="a" cx="9.794" cy="9.794" r="9.794" transform="translate(0 0)"/><ellipse class="a" cx="10.31" cy="9.794" rx="10.31" ry="9.794" transform="translate(57.735 0)"/></g><path class="b" d="M153.137,8H121.2a6.551,6.551,0,0,0-4.346,1.652L104,21.082h65.409L157.663,9.82A6.54,6.54,0,0,0,153.137,8Z" transform="translate(-1745.421 -18.044)"/><g transform="translate(-1644.593 19.856)"><path class="a" d="M91.8,154.289a3.091,3.091,0,1,0,2.863,3.3h0A3.091,3.091,0,0,0,91.8,154.289Z" transform="translate(-88.485 -154.281)"/><path class="a" d="M379.8,154.289a3.091,3.091,0,1,0,2.863,3.3h0A3.091,3.091,0,0,0,379.8,154.289Z" transform="translate(-317.618 -154.281)"/></g><path class="c" d="M216,96h9.811v3.27H216Z" transform="translate(-1834.528 -88.057)"/><path class="c" d="M448,104h4.906v3.27H448Z" transform="translate(-2019.107 -94.422)"/><path class="b" d="M227.675,9.82A6.541,6.541,0,0,0,223.149,8H205.082L192,21.082h47.421Z" transform="translate(-1815.434 -18.044)"/><path class="c" d="M280,8h3.27V21.082H280Z" transform="translate(-1885.447 -18.044)"/><g transform="translate(-1661.044 32.472)"><path class="b" d="M8,216h94.842v6.541H8Z" transform="translate(-8 -216)"/><path class="b" d="M8,440h94.842v6.541H8Z" transform="translate(-8 -394.214)"/></g><path class="d" d="M121.761,248H108.679L40,287.245H53.082Z" transform="translate(-1694.503 -208.988)"/><path class="b" d="M87.421,267.623A6.5,6.5,0,0,0,77.585,262l-24.5-14H40l34.34,19.623a6.5,6.5,0,0,0,9.836,5.62l24.5,14h13.082Z" transform="translate(-1694.503 -208.988)"/><path class="c" d="M232,336h3.27v3.27H232Z" transform="translate(-1847.258 -279)"/><g transform="translate(-1661.044 12.849)"><path class="a" d="M434.232,120a13.036,13.036,0,0,1,4.449,9.811h3.27V120Z" transform="translate(-347.109 -120)"/><path class="a" d="M187.835,120h-41.6a13.036,13.036,0,0,1,4.449,9.811h32.7A13.036,13.036,0,0,1,187.835,120Z" transform="translate(-117.977 -120)"/><path class="a" d="M8,129.811h6.541A13.036,13.036,0,0,1,18.99,120H8Z" transform="translate(-8 -120)"/></g><path class="c" d="M280,72h3.27V91.623H280Z" transform="translate(-1885.447 -68.962)"/><path class="c" d="M8,112h4.906v3.27H8Z" transform="translate(-1669.044 -100.786)"/><path class="b" d="M84.878,155.725c.111,0,.226.011.337.011a4.726,4.726,0,0,0,.331-9.44h0a4.726,4.726,0,1,0-.667,9.429Zm.327-6.17h.1a1.516,1.516,0,1,1-.1,0Z" transform="translate(-1726.713 -128.065)"/><path class="a" d="M94.759,15.7l-7.226-2.417L76.052,2.275A8.142,8.142,0,0,0,70.394,0H38.462a8.164,8.164,0,0,0-5.431,2.065L20.525,13.185,6.835,15.474A8.148,8.148,0,0,0,0,23.529v10.81a1.635,1.635,0,0,0,1.635,1.635H9.942a11.4,11.4,0,0,0,3.321,6.541H1.635A1.635,1.635,0,0,0,0,44.151v6.541a1.635,1.635,0,0,0,1.635,1.635H7.743L39.219,70.314,7.743,88.3H1.635A1.635,1.635,0,0,0,0,89.937v6.541a1.635,1.635,0,0,0,1.635,1.635H96.478a1.635,1.635,0,0,0,1.635-1.635V89.937A1.635,1.635,0,0,0,96.478,88.3H90.37L58.894,70.314,90.37,52.327h6.108a1.635,1.635,0,0,0,1.635-1.635V44.151a1.635,1.635,0,0,0-1.635-1.635H88.12a11.4,11.4,0,0,0,3.321-6.541h5.036a1.635,1.635,0,0,0,1.635-1.635v-14A4.906,4.906,0,0,0,94.759,15.7ZM60.5,3.27h9.891a4.886,4.886,0,0,1,3.395,1.364L82.6,13.082H60.5ZM35.2,4.51A4.906,4.906,0,0,1,38.462,3.27H57.232v9.811H25.558ZM68.81,35.975a11.4,11.4,0,0,0,3.321,6.541H29.252a11.4,11.4,0,0,0,3.321-6.541ZM12.395,27.11c-.185.226-.358.461-.525.7-.034.051-.072.1-.106.146q-.3.442-.553.909c-.044.078-.078.164-.121.244-.121.234-.239.469-.343.713-.052.121-.095.245-.142.366-.083.211-.164.42-.234.636-.046.141-.082.283-.123.425-.057.206-.113.412-.164.623-.033.15-.059.3-.087.458-.023.124-.054.247-.072.374H3.27V26.163h3.27v-3.27H3.328a4.88,4.88,0,0,1,4.042-4.2l14.024-2.337H57.232V32.7H32.588c-.018-.126-.049-.249-.072-.373-.028-.155-.054-.309-.088-.461-.046-.209-.1-.415-.164-.62-.041-.142-.077-.286-.123-.427-.07-.216-.15-.425-.234-.636-.047-.121-.09-.245-.142-.366-.1-.244-.222-.479-.343-.713-.043-.08-.077-.164-.121-.244q-.255-.469-.553-.908c-.034-.054-.075-.1-.113-.154a8.305,8.305,0,0,0-.518-.693c-.075-.093-.164-.18-.239-.271-.152-.175-.3-.348-.466-.512-.1-.1-.2-.19-.3-.285-.155-.147-.312-.294-.476-.433-.111-.093-.224-.182-.338-.27q-.245-.194-.491-.373c-.123-.087-.247-.164-.373-.249-.172-.111-.345-.217-.523-.327-.132-.075-.265-.147-.4-.217-.182-.095-.368-.183-.554-.268-.139-.062-.276-.124-.417-.182-.195-.078-.392-.149-.592-.216-.141-.049-.28-.1-.424-.142-.211-.062-.425-.113-.639-.164-.139-.033-.276-.069-.417-.1-.24-.047-.491-.08-.729-.113-.121-.015-.239-.038-.361-.049-.371-.029-.746-.051-1.123-.051s-.752.021-1.12.057c-.123.011-.24.034-.361.049-.245.033-.491.065-.729.113-.141.028-.278.064-.415.1-.216.051-.43.1-.641.164-.144.043-.283.093-.424.142-.2.067-.4.137-.592.216-.141.057-.278.119-.417.182-.186.085-.373.173-.554.268-.134.07-.267.142-.4.217-.178.1-.352.208-.525.327-.124.08-.249.164-.371.247-.164.119-.335.245-.491.374-.114.088-.227.177-.338.27-.164.139-.327.286-.476.433-.1.095-.2.186-.3.285-.164.164-.314.337-.466.512a3.136,3.136,0,0,0-.247.265Zm.687,7.229a8.176,8.176,0,1,1,8.176,8.176A8.176,8.176,0,0,1,13.082,34.339ZM41.307,72.888c0,.023.021.044.029.067a8.251,8.251,0,0,0,.585,1.29c.041.075.083.147.128.221a8.2,8.2,0,0,0,.829,1.156c.015.016.025.038.039.054L20.823,88.3H14.334Zm4.5,4.906a8.058,8.058,0,0,0,6.5,0L70.7,88.3H27.414ZM94.842,91.572v3.27H3.27v-3.27ZM83.779,88.3H77.29L53.162,74.515a1.635,1.635,0,0,0-1.635.01,4.742,4.742,0,0,1-4.932,0,4.857,4.857,0,0,1-2.445-4.211,1.619,1.619,0,0,0-.057-.427c-.01-.038-.031-.072-.044-.108a1.608,1.608,0,0,0-.119-.285c-.023-.041-.059-.074-.085-.113a1.63,1.63,0,0,0-.172-.222,1.671,1.671,0,0,0-.147-.113,1.518,1.518,0,0,0-.19-.147l-29-16.573h6.489L44.95,66.113a1.635,1.635,0,0,0,1.635-.01,4.742,4.742,0,0,1,4.932,0,4.857,4.857,0,0,1,2.445,4.211,1.618,1.618,0,0,0,.057.427c.01.038.031.072.044.108a1.608,1.608,0,0,0,.119.285c.023.041.059.074.085.113a1.629,1.629,0,0,0,.172.222,1.674,1.674,0,0,0,.147.113,1.519,1.519,0,0,0,.19.147ZM27.416,52.327H70.7L52.3,62.838a8.045,8.045,0,0,0-6.5,0ZM56.806,67.74c0-.023-.021-.044-.029-.067a8.252,8.252,0,0,0-.585-1.29c-.041-.075-.083-.147-.128-.221a8.2,8.2,0,0,0-.829-1.156c-.015-.016-.025-.038-.039-.054l22.1-12.625h6.489ZM94.842,45.786v3.27H3.27v-3.27Zm-14.717-3.27A8.176,8.176,0,1,1,88.3,34.339,8.176,8.176,0,0,1,80.125,42.516ZM94.842,21.258h-3.27v3.27h3.27V32.7H91.456c-.018-.126-.049-.249-.072-.373-.028-.155-.054-.309-.088-.461-.046-.209-.1-.415-.164-.62-.041-.142-.077-.286-.123-.427-.07-.216-.15-.425-.234-.636-.047-.121-.09-.245-.142-.366-.1-.244-.222-.479-.343-.713-.043-.08-.077-.164-.121-.244q-.255-.469-.553-.908c-.034-.054-.075-.1-.113-.154a8.3,8.3,0,0,0-.518-.693c-.075-.093-.164-.18-.239-.271-.152-.175-.3-.348-.466-.512-.1-.1-.2-.19-.3-.285-.155-.147-.312-.294-.476-.433-.111-.093-.224-.182-.338-.27q-.245-.194-.491-.373c-.123-.087-.247-.164-.373-.249-.172-.111-.345-.217-.523-.327-.132-.075-.265-.147-.4-.217-.182-.095-.368-.183-.554-.268-.139-.062-.276-.124-.417-.182-.195-.078-.392-.149-.592-.216-.141-.049-.28-.1-.424-.142-.211-.062-.425-.113-.639-.164-.139-.033-.276-.069-.417-.1-.24-.047-.491-.08-.729-.113-.121-.015-.239-.038-.361-.049-.371-.029-.746-.051-1.123-.051s-.752.021-1.12.057c-.123.011-.24.034-.361.049-.245.033-.491.065-.729.113-.141.028-.278.064-.415.1-.216.051-.43.1-.641.164-.144.043-.283.093-.424.142-.2.067-.4.137-.592.216-.141.057-.278.119-.417.182-.186.085-.373.173-.554.268-.134.07-.267.142-.4.217-.178.1-.352.208-.525.327-.124.08-.249.164-.371.247-.164.119-.327.245-.491.374-.114.088-.227.177-.338.27-.164.139-.327.286-.476.433-.1.095-.2.186-.3.285-.164.164-.314.337-.466.512-.078.092-.164.178-.239.271-.185.226-.358.461-.525.7-.034.051-.072.1-.106.146q-.3.442-.553.909c-.044.078-.078.164-.121.244-.121.234-.239.469-.343.713-.052.121-.095.245-.142.366-.083.211-.164.42-.234.636-.046.141-.082.283-.123.425-.057.206-.113.412-.164.623-.033.15-.059.3-.087.458-.023.124-.054.247-.072.374H60.5V16.352H86.4l7.323,2.441a1.635,1.635,0,0,1,1.118,1.55Z" transform="translate(-1662.679 -11.679)"/><path class="b" d="M373.545,146.3a4.726,4.726,0,1,0-.667,9.429c.111,0,.226.011.337.011a4.726,4.726,0,0,0,.331-9.44Zm-.437,6.166a1.455,1.455,0,0,1,.1-2.907h.1a1.457,1.457,0,0,1-.206,2.907Z" transform="translate(-1955.846 -128.066)"/><path class="b" d="M216,96h9.811v3.27H216Z" transform="translate(-1834.528 -88.057)"/><path class="a" d="M232,336h3.27v3.27H232Z" transform="translate(-1847.258 -279)"/><rect class="b" width="4.124" height="2.062" transform="translate(-1659.917 11.703)"/><rect class="b" width="4.124" height="2.062" transform="translate(-1571.253 11.703)"/></g></svg>