<svg xmlns="http://www.w3.org/2000/svg" width="101.496" height="98.113" viewBox="0 0 101.496 98.113"><defs><style>.a{fill:#f6b01d;}</style></defs><g transform="translate(-2 -3)"><path class="a" d="M36.829,21.485,43.6,24.868l5.082-2.537V15.964L43.6,18.5l-6.771-3.383L30.068,18.5,25,15.965v6.366l5.068,2.537Z" transform="translate(15.907 8.381)"/><path class="a" d="M36.829,27.485,43.6,30.868l5.082-2.537V21.964L43.6,24.5l-6.771-3.383L30.068,24.5,25,21.965v6.366l5.068,2.537Z" transform="translate(15.907 12.53)"/><path class="a" d="M36.829,33.485,43.6,36.868l5.082-2.537V27.964L43.6,30.5l-6.771-3.383L30.068,30.5,25,27.965v6.365l5.068,2.537Z" transform="translate(15.907 16.68)"/><path class="a" d="M36.829,39.485,43.6,42.868l5.082-2.537V33.964L43.6,36.5l-6.771-3.383L30.068,36.5,25,33.965v6.366l5.068,2.537Z" transform="translate(15.907 20.83)"/><path class="a" d="M36.789,9.567,43.56,12.95l4.98-2.488A8.44,8.44,0,0,0,40.184,3H33.417a8.444,8.444,0,0,0-8.358,7.463l4.968,2.487Z" transform="translate(15.948 0)"/><path class="a" d="M19,19.692V36.608A1.692,1.692,0,0,0,20.692,38.3h5.075V18H20.692A1.692,1.692,0,0,0,19,19.692Z" transform="translate(11.757 10.374)"/><path class="a" d="M57.15,27.075V23.692A1.692,1.692,0,0,0,55.458,22H47v6.766h8.458A1.692,1.692,0,0,0,57.15,27.075Z" transform="translate(31.122 13.14)"/><path class="a" d="M47.766,36.608V19.692A1.692,1.692,0,0,0,46.075,18H41V38.3h5.075A1.692,1.692,0,0,0,47.766,36.608Z" transform="translate(26.972 10.374)"/><path class="a" d="M36.829,15.485,43.6,18.868l5.082-2.537V9.964L43.6,12.5,36.829,9.118,30.068,12.5,25,9.965v6.365l5.068,2.537Z" transform="translate(15.907 4.231)"/><path class="a" d="M11,23.692v3.383a1.692,1.692,0,0,0,1.692,1.692H21.15V22H12.692A1.692,1.692,0,0,0,11,23.692Z" transform="translate(6.224 13.14)"/><path class="a" d="M55.485,52.068,58.021,47H51.655l-2.537,5.068L52.5,58.829,49.118,65.6l2.537,5.082h6.367L55.485,65.6l3.383-6.771Z" transform="translate(32.587 30.431)"/><path class="a" d="M43.485,52.068,46.021,47H39.655l-2.537,5.068L40.5,58.829,37.118,65.6l2.537,5.082h6.367L43.485,65.6l3.383-6.771Z" transform="translate(24.288 30.431)"/><path class="a" d="M57.6,47.059l-2.487,4.968L58.5,58.789,55.118,65.56l2.488,4.98a8.44,8.44,0,0,0,7.462-8.357V55.417A8.444,8.444,0,0,0,57.6,47.059Z" transform="translate(36.737 30.471)"/><path class="a" d="M49.485,52.068,52.021,47H45.655l-2.537,5.068L46.5,58.829,43.118,65.6l2.537,5.082h6.367L49.485,65.6l3.383-6.771Z" transform="translate(28.437 30.431)"/><path class="a" d="M33.458,49.067h6.766a8.468,8.468,0,0,0,8.458-8.458v-.646L43.6,42.5l-6.771-3.383L30.068,42.5,25,39.965v.645A8.468,8.468,0,0,0,33.458,49.067Z" transform="translate(15.907 24.98)"/><path class="a" d="M25.567,52.068,28.1,47h-.645A8.468,8.468,0,0,0,19,55.458v6.766a8.468,8.468,0,0,0,8.458,8.458H28.1L25.565,65.6l3.383-6.771Z" transform="translate(11.757 30.431)"/><path class="a" d="M37.485,52.068,40.021,47H33.655l-2.537,5.068L34.5,58.829,31.118,65.6l2.537,5.082h6.367L37.485,65.6l3.383-6.771Z" transform="translate(20.138 30.431)"/><path class="a" d="M31.485,52.068,34.021,47H27.655l-2.537,5.068L28.5,58.829,25.118,65.6l2.537,5.082h6.367L31.485,65.6l3.383-6.771Z" transform="translate(15.988 30.431)"/><path class="a" d="M18.916,20.916l13.533-8.458L18.916,4V7.383H2v10.15H18.916Z" transform="translate(0 0.692)"/><path class="a" d="M57.533,35.383V32L44,40.458l13.533,8.458V45.533H74.449V35.383Z" transform="translate(29.047 20.056)"/></g></svg>