<svg xmlns="http://www.w3.org/2000/svg" width="98.457" height="98.457" viewBox="0 0 98.457 98.457"><defs><style>.a{fill:#04154c;}</style></defs><g transform="translate(-4 -4)"><path class="a" d="M18.071,25.944A29.2,29.2,0,0,0,16.7,29.584l8.386.457L18.827,24.45C18.564,24.942,18.3,25.435,18.071,25.944Z" transform="translate(9.629 15.504)"/><path class="a" d="M16,44.132a27.48,27.48,0,0,0,.4,4.659l14.013-.774a1.783,1.783,0,0,1,1.723,1.09,1.758,1.758,0,0,1-.44,1.987l-7.947,7.1H35.709l1.477-1.635a1.758,1.758,0,0,1,3.059,1.283l-.018.352h7.806l-.018-.352a1.758,1.758,0,0,1,3.059-1.283L52.552,58.2H64.508l-7.947-7.1a1.772,1.772,0,0,1,1.283-3.077l14.013.774a27.48,27.48,0,0,0,.4-4.659,27.168,27.168,0,0,0-.422-4.659l-13.995.774h-.105a1.735,1.735,0,0,1-1.618-1.09,1.758,1.758,0,0,1,.44-1.987l10.461-9.336a28.542,28.542,0,0,0-6.593-6.576L51.093,31.7a1.827,1.827,0,0,1-1.319.58,1.786,1.786,0,0,1-1.758-1.864l.774-14.013c-.44-.07-.9-.158-1.354-.211a27.717,27.717,0,0,0-6.611,0c-.457.053-.914.141-1.354.211l.774,14.013a1.786,1.786,0,0,1-1.758,1.864,1.827,1.827,0,0,1-1.319-.58L27.832,21.259a28.542,28.542,0,0,0-6.593,6.576L31.7,37.17a1.758,1.758,0,0,1,.44,1.987,1.735,1.735,0,0,1-1.618,1.09h-.105l-13.995-.774A27.169,27.169,0,0,0,16,44.132Zm28.131-8.791a8.791,8.791,0,1,1-8.791,8.791A8.791,8.791,0,0,1,44.131,35.342Z" transform="translate(9.098 9.096)"/><path class="a" d="M86.721,53.491a1.758,1.758,0,0,1-2.127,0l-8.211-6.224-8.211,6.224a1.785,1.785,0,0,1-2.127,0l-8.211-6.224-8.193,6.224a1.758,1.758,0,0,1-2.127,0L39.3,47.268l-8.211,6.224a1.758,1.758,0,0,1-2.127,0l-8.193-6.224L12.58,53.491a1.758,1.758,0,0,1-2.127,0L4,48.586V56.48l7.507,5.7L19.7,55.953a1.758,1.758,0,0,1,2.127,0l8.211,6.224,8.193-6.224a1.758,1.758,0,0,1,2.127,0l8.211,6.224,8.211-6.224a1.758,1.758,0,0,1,2.127,0l8.211,6.224,8.193-6.224a1.758,1.758,0,0,1,2.127,0l8.211,6.241,8.228-6.241a1.758,1.758,0,0,1,2.127,0l6.452,4.905V52.964L94.932,47.25Z" transform="translate(0 32.79)"/><path class="a" d="M24.45,18.827l5.591,6.259L29.584,16.7a28.47,28.47,0,0,0-5.134,2.127Z" transform="translate(15.504 9.629)"/><path class="a" d="M93.507,42H12.632A8.775,8.775,0,0,0,4.21,48.435l7.138,5.415,8.193-6.224a1.758,1.758,0,0,1,2.127,0l8.211,6.224,8.193-6.224a1.758,1.758,0,0,1,2.127,0L48.41,53.85l8.211-6.224a1.758,1.758,0,0,1,2.127,0l8.211,6.224,8.193-6.224a1.758,1.758,0,0,1,2.127,0l8.211,6.241,8.228-6.241a1.758,1.758,0,0,1,2.127,0l6.452,4.905V50.791A8.791,8.791,0,0,0,93.507,42Z" transform="translate(0.159 28.81)"/><circle class="a" cx="5" cy="5" r="5" transform="translate(48.229 48.228)"/><path class="a" d="M36.37,25.086l5.591-6.259A28.47,28.47,0,0,0,36.827,16.7Z" transform="translate(24.542 9.629)"/><path class="a" d="M53.229,4A49.239,49.239,0,0,0,6.585,68.982a12.375,12.375,0,0,1,6.206-1.688H24.9a31.647,31.647,0,0,1-3.323-14.065,31,31,0,0,1,.615-6.171,30.369,30.369,0,0,1,2.3-7.085,31.858,31.858,0,0,1,25-18.162,31.1,31.1,0,0,1,7.455,0,31.858,31.858,0,0,1,25,18.162,30.24,30.24,0,0,1,2.3,7.1,30.693,30.693,0,0,1,.615,6.154,31.647,31.647,0,0,1-3.323,14.065H93.666a12.376,12.376,0,0,1,6.206,1.688A49.239,49.239,0,0,0,53.229,4Z" transform="translate(0)"/><path class="a" d="M18.835,41.961l6.259-5.591-8.4.457A27.322,27.322,0,0,0,18.835,41.961Z" transform="translate(9.621 24.542)"/><path class="a" d="M50.934,36.827l-8.4-.457,6.259,5.591a27.322,27.322,0,0,0,2.145-5.134Z" transform="translate(29.212 24.542)"/><path class="a" d="M49.545,25.944c-.229-.51-.492-1-.756-1.494L42.53,30.041l8.386-.457a29.2,29.2,0,0,0-1.371-3.639Z" transform="translate(29.212 15.504)"/><path class="a" d="M86.721,60.491a1.758,1.758,0,0,1-2.127,0l-8.211-6.224-8.211,6.224a1.785,1.785,0,0,1-2.127,0l-8.211-6.224-8.193,6.224a1.758,1.758,0,0,1-2.127,0L39.3,54.268l-8.211,6.224a1.758,1.758,0,0,1-2.127,0l-8.193-6.224L12.58,60.491a1.758,1.758,0,0,1-2.127,0L4,55.6a8.81,8.81,0,0,0,8.791,8.756H93.666A8.777,8.777,0,0,0,101.6,59.3L94.932,54.25Z" transform="translate(0 38.098)"/></g></svg>