<?xml version="1.0"?>
<svg xmlns="http://www.w3.org/2000/svg" id="Layer_1" data-name="Layer 1" viewBox="0 0 512 512" width="512" height="512"><title>Car Maintenance</title><path d="M88.272,199.84A26.58,26.58,0,0,0,88.541,253h.2C103.411,253,115,240.9,115,226.236A26.478,26.478,0,0,0,88.272,199.84Zm.367,39.262a12.551,12.551,0,1,1-.186-25.1h.094a12.551,12.551,0,1,1,.092,25.1Z"/><path d="M191.855,202H191.8a7,7,0,0,0-6.949,7.073l.133,18.023a6.962,6.962,0,0,0,7,6.9h.053a6.933,6.933,0,0,0,6.948-7l-.133-18.062A6.994,6.994,0,0,0,191.855,202Z"/><path d="M158.389,202h-.053a7.108,7.108,0,0,0-6.948,7.2l.133,17.962a6.91,6.91,0,0,0,7,6.841h.053a6.831,6.831,0,0,0,6.948-6.872L165.388,209A7.049,7.049,0,0,0,158.389,202Z"/><path d="M496.672,287.678l-27.191-2.621a123.728,123.728,0,0,0-13.675-32.493l17.3-20.884a7,7,0,0,0-.41-9.383l-14.184-14.366,2.154-17.268a7.045,7.045,0,0,0,.053-.918,46.247,46.247,0,0,0-11.42-30.4,41.446,41.446,0,0,0-6.069-5.622l23.848-.184a7,7,0,0,0,6.935-7.389,70.221,70.221,0,0,0-3.5-16.987c-4.122-12.07-16.879-19.763-32.516-19.682-9.328.069-26.217.133-34,.16L388.511,81.8C377.67,62.7,361.917,41,336.021,41h-.34L147.353,42.2c-21.266.157-40.025,14.91-52.841,41.72l-15.73,28.313c-7.765.041-24.851.111-34.3.181-15.63.115-28.279,8.016-32.224,20.147a70.11,70.11,0,0,0-3.252,17.031,7.144,7.144,0,0,0,1.965,5.218A7.061,7.061,0,0,0,16,157h.061l23.4-.269c-10.164,8.022-16.632,21.152-16.521,36.274a6.913,6.913,0,0,0,.062.862l11.7,87.24a25.954,25.954,0,0,0,21.614,24.886l.206,27.853A16.3,16.3,0,0,0,72.974,350H73.1l28.724-.121a16.385,16.385,0,0,0,16.338-16.512L117.8,305.9l75.2-.563v32.708a7.139,7.139,0,0,0,6.484,6.968l27.269,2.621a123.9,123.9,0,0,0,13.714,32.492l-17.275,20.885a7,7,0,0,0,.451,9.414l30.62,30.615a7,7,0,0,0,9.417.442l20.93-17.332a126.337,126.337,0,0,0,32.449,13.709l2.621,27A6.836,6.836,0,0,0,326.648,471h43.4a6.837,6.837,0,0,0,6.968-6.136l2.621-27.094a123.645,123.645,0,0,0,32.492-13.627l20.885,17.319a7,7,0,0,0,9.414-.43l30.615-30.609a7,7,0,0,0,.442-9.411l-17.332-20.928a126.331,126.331,0,0,0,13.71-32.453l26.813-2.616a7,7,0,0,0,6.32-6.966v-43.4A7,7,0,0,0,496.672,287.678ZM438.09,123.486c9.337-.1,17.056,4.033,19.166,10.208a54.958,54.958,0,0,1,1.644,5.912l-38.208.3-8.99-16.284C420.141,123.585,431.181,123.537,438.09,123.486ZM106.858,90.423c.071-.127.137-.256.2-.387,6.016-12.643,19.264-33.684,40.4-33.84L335.785,55h.237c14.767,0,26.838,9.966,40.273,33.641l31.79,57.488-33.461.2a46.208,46.208,0,0,0-91.714.634L74.653,148.493Zm253.616,55.961-63.413.417A32.2,32.2,0,0,1,328.569,120h.244a32.292,32.292,0,0,1,31.661,26.384ZM24.018,142.8a55.028,55.028,0,0,1,1.554-5.923c2.018-6.205,9.658-10.421,19.013-10.489,6.926-.051,17.957-.115,26.408-.162L61.982,142.47Zm79.435,192.439a2.448,2.448,0,0,1-1.733.733L73,336.182a2.556,2.556,0,0,1-1.744-.708,2.448,2.448,0,0,1-.733-1.733l-.2-27.462,33.642-.257.2,27.471A2.453,2.453,0,0,1,103.453,335.237Zm90.7-44.077L60.7,292h-.089a11.783,11.783,0,0,1-11.917-11.655,5.816,5.816,0,0,0-.062-.791L36.938,192.4c.058-18.037,12.3-28.906,24.648-29.737.372.061.747.336,1.13.336h.053l356.9-2.819c.055,0,.108-.181.163-.181h.053a24.973,24.973,0,0,1,18.924,8.653,32.634,32.634,0,0,1,7.9,20.768l-.727,5.829-3.518-3.566a7,7,0,0,0-9.445-.474l-20.929,17.331a126.346,126.346,0,0,0-32.448-13.709l-2.621-27.349A7.138,7.138,0,0,0,370.052,161h-43.4a7.136,7.136,0,0,0-6.967,6.483l-2.621,27.268a123.862,123.862,0,0,0-32.493,13.714l-20.884-17.276a7,7,0,0,0-9.415.451l-21.912,21.917-.035-4.713a6.912,6.912,0,0,0-7-6.844h-.053a6.9,6.9,0,0,0-6.948,6.95l.133,18.018a6.972,6.972,0,0,0,6.549,6.9l15.54,18.753a126.343,126.343,0,0,0-13.709,32.442l-27.193,2.618A6.81,6.81,0,0,0,194.151,291.16ZM489,331.7l-25.458,2.484a7,7,0,0,0-6.162,5.487,112.507,112.507,0,0,1-15.7,37.213,7,7,0,0,0,.491,8.26l16.475,19.893-21.6,21.6-19.893-16.474a7,7,0,0,0-8.348-.434,109.105,109.105,0,0,1-37.125,15.646,6.783,6.783,0,0,0-5.488,5.978L363.694,457H333.006l-2.49-25.645a6.892,6.892,0,0,0-5.489-6.074,112.389,112.389,0,0,1-37.213-15.656,7,7,0,0,0-8.259.516l-19.894,16.486-21.6-21.6,16.474-19.89a7,7,0,0,0,.433-8.347,109.12,109.12,0,0,1-15.646-37.124,7.184,7.184,0,0,0-6.326-5.488L207,331.691V301l25.994-2.49a7.092,7.092,0,0,0,6.248-5.489,112.605,112.605,0,0,1,15.743-37.212,7,7,0,0,0-.472-8.26l-16.464-19.894,21.607-21.6,19.9,16.474a7,7,0,0,0,8.349.433,109.139,109.139,0,0,1,37.126-15.646,7.179,7.179,0,0,0,5.488-6.325L333.006,175h30.688l2.491,25.992a7.089,7.089,0,0,0,5.488,6.248,112.607,112.607,0,0,1,37.213,15.742,7,7,0,0,0,8.26-.472l19.861-16.438,21.273,21.55-16.5,19.927a7,7,0,0,0-.433,8.349,109.13,109.13,0,0,1,15.646,37.126,7,7,0,0,0,6.17,5.488L489,301Z"/><path d="M348.35,224.842a91.506,91.506,0,1,0,91.505,91.5A91.609,91.609,0,0,0,348.35,224.842Zm0,169.011a77.506,77.506,0,1,1,77.505-77.506A77.594,77.594,0,0,1,348.35,393.853Z"/><path d="M380.8,287.773l-43.383,42.356-21.9-21.385a7,7,0,1,0-9.78,10.017l26.795,26.16a7,7,0,0,0,9.78,0l48.274-47.13a7,7,0,0,0-9.781-10.018Z"/></svg>
