<?xml version="1.0"?>
<svg xmlns="http://www.w3.org/2000/svg" id="Layer_1" data-name="Layer 1" viewBox="0 0 512 512" width="512" height="512"><title>Service</title><path d="M81.866,245h6.489a29.5,29.5,0,1,0,0-59H81.866a29.5,29.5,0,1,0,0,59Zm0-43h6.489a13.5,13.5,0,1,1,0,27H81.866a13.5,13.5,0,1,1,0-27Z"/><path d="M491.591,305.716,468,303.443a112.3,112.3,0,0,0-11.727-27.683l14.9-17.991a8,8,0,0,0-.484-10.734l-27.412-27.689a8,8,0,0,0-10.794-.531l-17.992,14.963c-3.468-2.011-7.481-3.824-10.481-5.447V183.853a48,48,0,0,0-14.832-34.537l-8.564-9.122L350.629,59.423A34.576,34.576,0,0,0,318.265,37H104.283A34.557,34.557,0,0,0,71.932,59.423l-29.59,79.812-12.45,11.39A47.792,47.792,0,0,0,13,186.889V331.017A8.3,8.3,0,0,0,21.358,339H96.441c4.418,0,7.559-3.564,7.559-7.983V287H251.267a168.425,168.425,0,0,0-5.786,16.27l-23.392,2.361A7.961,7.961,0,0,0,215,313.679v39.25a7.88,7.88,0,0,0,7.089,7.963l23.437,2.273a112.068,112.068,0,0,0,11.647,27.683l-14.935,17.991a8,8,0,0,0,.5,10.769L270.477,447.3a8,8,0,0,0,10.756.495l18.044-14.962a115.861,115.861,0,0,0,27.686,11.682l2.272,23.35A7.921,7.921,0,0,0,337.2,475H376.5a7.923,7.923,0,0,0,7.963-7.138l2.27-23.392a112.076,112.076,0,0,0,27.733-11.626l18,14.937a8,8,0,0,0,10.758-.49l27.745-27.686a8,8,0,0,0,.506-10.768l-14.946-18.025A116.219,116.219,0,0,0,468.22,363.16l23.38-2.27a8.157,8.157,0,0,0,7.4-7.961v-39.25A8.158,8.158,0,0,0,491.591,305.716ZM86.936,65.106A18.6,18.6,0,0,1,104.283,53H318.265a18.6,18.6,0,0,1,17.346,12.105L361.867,136H60.68ZM29,186.889a31.87,31.87,0,0,1,11.388-24.21c.093-.078.273-.035.362-.118L52.329,152h317.15l8.111,8.544c.113.12.285.175.4.288A31.794,31.794,0,0,1,388,183.853V222.43c0-.109-.823-.23-1.208-.334l-2.3-23.654A8.217,8.217,0,0,0,376.5,191H337.2a8.19,8.19,0,0,0-7.963,7.442l-2.271,23.544a112.288,112.288,0,0,0-27.732,11.7l-18-14.9a7.85,7.85,0,0,0-10.641.509l-.589.717V194.569c0-4.418-3.814-7.569-8.232-7.569H155.479c-4.417,0-8.479,3.151-8.479,7.569v42.348c0,4.419,4.062,8.083,8.479,8.083h89.335l-2.086,2.041a7.755,7.755,0,0,0-.507,10.577L253.476,271H29V186.889ZM254,229H163V203h91ZM88,323H29V287H88Zm395,22.673-21.776,2.113a8.1,8.1,0,0,0-7.12,6.227,100.608,100.608,0,0,1-14.051,33.122,8,8,0,0,0,.522,9.472l13.943,16.829-17.434,17.393-16.843-13.963a8,8,0,0,0-9.521-.514,96.453,96.453,0,0,1-33.078,13.908,7.9,7.9,0,0,0-6.282,6.96L369.24,459H344.459l-2.119-21.781a7.95,7.95,0,0,0-6.3-7.007,99.87,99.87,0,0,1-33.151-13.941,8,8,0,0,0-9.431.584l-16.84,13.968-17.429-17.39,13.953-16.827a8,8,0,0,0,.5-9.535,96.456,96.456,0,0,1-13.959-33.025,7.839,7.839,0,0,0-6.906-6.261L231,345.665V320.943l21.785-2.12a7.921,7.921,0,0,0,6.97-6.228,100.4,100.4,0,0,1,13.971-33.122,8,8,0,0,0-.562-9.472L259.2,253.172l17.424-17.393,16.838,13.963a8,8,0,0,0,9.52.514,96.417,96.417,0,0,1,33.074-13.908,8.25,8.25,0,0,0,6.282-7.264L344.459,207H369.24l2.119,22.084a8.124,8.124,0,0,0,6.3,7.16,100.1,100.1,0,0,1,33.153,14.016,8,8,0,0,0,9.43-.545l16.806-13.921L454.2,253.131,440.215,270a8,8,0,0,0-.5,9.537,96.472,96.472,0,0,1,13.959,33.027,8.206,8.206,0,0,0,7.226,6.26l22.1,2.121Z"/><path d="M356.709,249.23A84.074,84.074,0,1,0,440.9,333.3,84.226,84.226,0,0,0,356.709,249.23Zm0,152.147A68.074,68.074,0,1,1,424.9,333.3,68.207,68.207,0,0,1,356.709,401.377Z"/><path d="M356.709,290.7a42.6,42.6,0,1,0,42.655,42.6A42.677,42.677,0,0,0,356.709,290.7Zm0,69.208a26.6,26.6,0,1,1,26.655-26.6A26.66,26.66,0,0,1,356.709,359.908Z"/></svg>
