<?xml version="1.0"?>
<svg xmlns="http://www.w3.org/2000/svg" id="Layer_1" data-name="Layer 1" viewBox="0 0 512 512" width="512" height="512"><title>Repair Service</title><path d="M89.46,430.219a76.619,76.619,0,0,0,42.632,68.933,6.793,6.793,0,0,0,6.7-.308A6.9,6.9,0,0,0,142,492.89v-36.4l24.033-15.938,24.572,17.156-.095,35.2a7.023,7.023,0,0,0,10.145,6.3,76.752,76.752,0,0,0,35.726-36.684l12.474.873c.166.01.331.016.494.016a7,7,0,0,0,6.9-5.844l5.624-33.588A148.088,148.088,0,0,0,303.748,409.7l24.487,23.343a7,7,0,0,0,9.423.217l39.51-34.346a7,7,0,0,0,1.1-9.361L358.522,362a151.383,151.383,0,0,0,20-39.437l33.585-.922a7,7,0,0,0,6.791-6.509l3.661-52.354a7,7,0,0,0-5.827-7.392l-33.588-5.623a148.055,148.055,0,0,0-14.28-41.876L392.211,183.4a7,7,0,0,0,.246-9.388l-33.879-39.478a7,7,0,0,0-9.39-1.131l-27.547,19.743a151.4,151.4,0,0,0-39.432-20L281.314,99.1a7,7,0,0,0-6.509-6.8l-31.841-2.227a76.928,76.928,0,0,0-42.2-77.225,6.654,6.654,0,0,0-6.629.308A6.839,6.839,0,0,0,191,19.11v36.4L166.886,71.445,142.274,54.289l.076-35.2a7.041,7.041,0,0,0-10.158-6.3A76.58,76.58,0,0,0,89.465,81.781c0,30.324,18.535,57.97,45.535,70.28V359.939C108,372.249,89.46,399.9,89.46,430.219Zm178.026-324.4.86,32.7a7,7,0,0,0,5.044,6.538,137.534,137.534,0,0,1,44.031,22.317,7,7,0,0,0,8.274.086l26.436-18.946,25.577,29.8-22.5,23.6a7,7,0,0,0-1.014,8.3,133.449,133.449,0,0,1,15.919,46.616,7,7,0,0,0,5.772,5.906l32.266,5.4-2.775,39.676-32.243.886a7,7,0,0,0-6.531,5.044,137.479,137.479,0,0,1-22.314,44.03,7,7,0,0,0-.087,8.275l18.97,26.468-29.891,25.985-23.572-22.469a7,7,0,0,0-8.3-1.015A133.413,133.413,0,0,1,254.8,410.945a7,7,0,0,0-5.905,5.773l-5.4,32.266-2.315-.162a77.849,77.849,0,0,0,2.244-18.6,77.029,77.029,0,0,0-14.8-45.258c2.407.155,4.8.241,7.195.241A109.183,109.183,0,1,0,198,173.545V152.061a78.969,78.969,0,0,0,42.177-48.151Zm-55.4,262.4A77.359,77.359,0,0,0,198,359.939V188.621a95.189,95.189,0,1,1,14.086,179.6Zm-67.677-227.4a63.3,63.3,0,0,1-40.97-59.033,62.618,62.618,0,0,1,24.833-50.167L128.177,57.9a7,7,0,0,0,2.984,5.76L162.6,85.655a7,7,0,0,0,7.892.091L201.7,65.082a7.175,7.175,0,0,0,3.3-5.826V31.665a64,64,0,0,1,24.6,50.116,63.33,63.33,0,0,1-41,59.033,7.047,7.047,0,0,0-4.6,6.558V364.628a6.966,6.966,0,0,0,4.51,6.558,63.12,63.12,0,0,1,36.976,81.077,6.89,6.89,0,0,0-.292.727,62.474,62.474,0,0,1-20.614,27.395l.089-26.287a7,7,0,0,0-2.988-5.759l-31.438-21.994a7,7,0,0,0-7.892-.091L131.22,446.918a7.1,7.1,0,0,0-3.22,5.826v27.591a64.07,64.07,0,0,1-24.68-50.116,63.367,63.367,0,0,1,41.039-59.033A7.084,7.084,0,0,0,149,364.628V147.372A7.038,7.038,0,0,0,144.409,140.814Z"/></svg>
