<?xml version='1.0' encoding='iso-8859-1'?>
<svg version="1.1" xmlns="http://www.w3.org/2000/svg" viewBox="0 0 240.255 240.255" xmlns:xlink="http://www.w3.org/1999/xlink" enable-background="new 0 0 240.255 240.255">
  <path d="m240.255,196.037l-26.255-26.088v-7.519c5-8.309 7.244-17.691 7.244-27.457 0-8.018-1.502-15.775-4.646-22.896h11.402v-39h-29.516l-12.969-43h-142.333l-12.969,43h-30.213v39h18.381l-4.185,13.72-.196,.566v58.713h16v17h45v-17h63.071c4.786,2.552 9.929,4.392 14.929,5.474v11.526h45v-17h3.175l25.021,25.104 14.059-14.143zm-49.599-87.024c6.935,6.934 10.754,16.153 10.754,25.959 0,9.807-3.819,19.026-10.754,25.96-6.934,6.935-16.153,10.754-25.96,10.754-9.806,0-19.025-3.819-25.959-10.754-6.935-6.934-10.753-16.153-10.753-25.96 0-9.806 3.818-19.025 10.753-25.959 6.934-6.935 16.153-10.753 25.959-10.753 9.807,0 19.027,3.819 25.96,10.753zm-126.408-59.937h100.2l8.186,29.742c-2.608-0.363-5.258-0.557-7.938-0.557-15.148,0-29.39,5.899-40.102,16.61-3.962,3.962-7.261,8.41-9.851,13.205h-66.734l16.239-59zm16.752,105h-41v-21h41v21z"/>
</svg>
